<mxfile host="Electron" modified="2024-06-23T13:45:55.488Z" agent="Mozilla/5.0 (Windows NT 10.0; Win64; x64) AppleWebKit/537.36 (KHTML, like Gecko) draw.io/24.6.1 Chrome/124.0.6367.207 Electron/30.0.6 Safari/537.36" etag="SIBO6wcDapzf--m9AgDj" version="24.6.1" type="device">
  <diagram name="1 oldal" id="S9mdxrr60OF5qPi55Myz">
    <mxGraphModel dx="1434" dy="836" grid="1" gridSize="10" guides="1" tooltips="1" connect="1" arrows="1" fold="1" page="1" pageScale="1" pageWidth="827" pageHeight="1169" math="0" shadow="0">
      <root>
        <mxCell id="0" />
        <mxCell id="1" parent="0" />
        <mxCell id="dqyaHiq_9Pxx8zwqD8IH-25" value="" style="rounded=0;whiteSpace=wrap;html=1;" vertex="1" parent="1">
          <mxGeometry x="70" y="40" width="690" height="630" as="geometry" />
        </mxCell>
        <mxCell id="dqyaHiq_9Pxx8zwqD8IH-4" value="" style="rounded=1;whiteSpace=wrap;html=1;strokeColor=#F58534;strokeWidth=3;dashed=1;" vertex="1" parent="1">
          <mxGeometry x="120" y="110" width="612.5" height="490" as="geometry" />
        </mxCell>
        <mxCell id="dqyaHiq_9Pxx8zwqD8IH-1" value="" style="outlineConnect=0;dashed=0;verticalLabelPosition=bottom;verticalAlign=top;align=center;html=1;shape=mxgraph.aws3.virtual_private_cloud;fillColor=#F58534;gradientColor=none;" vertex="1" parent="1">
          <mxGeometry x="80" y="83.21" width="89.5" height="60.79" as="geometry" />
        </mxCell>
        <mxCell id="dqyaHiq_9Pxx8zwqD8IH-9" value="Avaibality Zone A" style="rounded=1;arcSize=10;dashed=1;strokeColor=#F59D56;fillColor=none;gradientColor=none;dashPattern=8 4;strokeWidth=2;verticalAlign=top;fontColor=#F58534;" vertex="1" parent="1">
          <mxGeometry x="184.25" y="80" width="199.5" height="560" as="geometry" />
        </mxCell>
        <mxCell id="dqyaHiq_9Pxx8zwqD8IH-5" value="Public subnet 1" style="points=[[0,0],[0.25,0],[0.5,0],[0.75,0],[1,0],[1,0.25],[1,0.5],[1,0.75],[1,1],[0.75,1],[0.5,1],[0.25,1],[0,1],[0,0.75],[0,0.5],[0,0.25]];outlineConnect=0;gradientColor=none;html=1;whiteSpace=wrap;fontSize=12;fontStyle=0;container=1;pointerEvents=0;collapsible=0;recursiveResize=0;shape=mxgraph.aws4.group;grIcon=mxgraph.aws4.group_security_group;grStroke=0;strokeColor=#F58534;fillColor=#FDE7D6;verticalAlign=top;align=left;spacingLeft=30;fontColor=#F58534;dashed=1;" vertex="1" parent="1">
          <mxGeometry x="219" y="190" width="130" height="130" as="geometry" />
        </mxCell>
        <mxCell id="dqyaHiq_9Pxx8zwqD8IH-10" value="Avaibality Zone B" style="rounded=1;arcSize=10;dashed=1;strokeColor=#F59D56;fillColor=none;gradientColor=none;dashPattern=8 4;strokeWidth=2;verticalAlign=top;fontColor=#F58534;" vertex="1" parent="1">
          <mxGeometry x="515.25" y="80" width="194.75" height="560" as="geometry" />
        </mxCell>
        <mxCell id="dqyaHiq_9Pxx8zwqD8IH-6" value="Public subnet 2" style="points=[[0,0],[0.25,0],[0.5,0],[0.75,0],[1,0],[1,0.25],[1,0.5],[1,0.75],[1,1],[0.75,1],[0.5,1],[0.25,1],[0,1],[0,0.75],[0,0.5],[0,0.25]];outlineConnect=0;gradientColor=none;html=1;whiteSpace=wrap;fontSize=12;fontStyle=0;container=1;pointerEvents=0;collapsible=0;recursiveResize=0;shape=mxgraph.aws4.group;grIcon=mxgraph.aws4.group_security_group;grStroke=0;strokeColor=#F58534;fillColor=#FDE7D6;verticalAlign=top;align=left;spacingLeft=30;fontColor=#F58534;dashed=1;" vertex="1" parent="1">
          <mxGeometry x="550" y="190" width="130" height="130" as="geometry" />
        </mxCell>
        <mxCell id="dqyaHiq_9Pxx8zwqD8IH-23" value="&lt;font color=&quot;#f58534&quot;&gt;NAT Gateway&lt;/font&gt;" style="outlineConnect=0;dashed=0;verticalLabelPosition=bottom;verticalAlign=top;align=center;html=1;shape=mxgraph.aws3.vpc_nat_gateway;fillColor=#F58534;gradientColor=none;" vertex="1" parent="dqyaHiq_9Pxx8zwqD8IH-6">
          <mxGeometry x="35.75" y="50" width="58.5" height="61.04" as="geometry" />
        </mxCell>
        <mxCell id="dqyaHiq_9Pxx8zwqD8IH-7" value="Private subnet 1" style="points=[[0,0],[0.25,0],[0.5,0],[0.75,0],[1,0],[1,0.25],[1,0.5],[1,0.75],[1,1],[0.75,1],[0.5,1],[0.25,1],[0,1],[0,0.75],[0,0.5],[0,0.25]];outlineConnect=0;gradientColor=none;html=1;whiteSpace=wrap;fontSize=12;fontStyle=0;container=1;pointerEvents=0;collapsible=0;recursiveResize=0;shape=mxgraph.aws4.group;grIcon=mxgraph.aws4.group_security_group;grStroke=0;strokeColor=#F58534;fillColor=#FDE7D6;verticalAlign=top;align=left;spacingLeft=30;fontColor=#F58534;dashed=1;" vertex="1" parent="1">
          <mxGeometry x="219" y="410" width="130" height="130" as="geometry" />
        </mxCell>
        <mxCell id="dqyaHiq_9Pxx8zwqD8IH-8" value="Private subnet 2" style="points=[[0,0],[0.25,0],[0.5,0],[0.75,0],[1,0],[1,0.25],[1,0.5],[1,0.75],[1,1],[0.75,1],[0.5,1],[0.25,1],[0,1],[0,0.75],[0,0.5],[0,0.25]];outlineConnect=0;gradientColor=none;html=1;whiteSpace=wrap;fontSize=12;fontStyle=0;container=1;pointerEvents=0;collapsible=0;recursiveResize=0;shape=mxgraph.aws4.group;grIcon=mxgraph.aws4.group_security_group;grStroke=0;strokeColor=#F58534;fillColor=#FDE7D6;verticalAlign=top;align=left;spacingLeft=30;fontColor=#F58534;dashed=1;" vertex="1" parent="1">
          <mxGeometry x="550" y="410" width="130" height="130" as="geometry" />
        </mxCell>
        <mxCell id="dqyaHiq_9Pxx8zwqD8IH-11" value="&lt;font color=&quot;#f58534&quot;&gt;Internet Gateway&lt;/font&gt;" style="outlineConnect=0;dashed=0;verticalLabelPosition=top;verticalAlign=bottom;align=center;html=1;shape=mxgraph.aws3.internet_gateway;fillColor=#F58534;gradientColor=none;labelPosition=center;" vertex="1" parent="1">
          <mxGeometry x="410.25" y="72" width="69" height="72" as="geometry" />
        </mxCell>
        <mxCell id="dqyaHiq_9Pxx8zwqD8IH-13" value="&lt;font color=&quot;#f58534&quot;&gt;NAT Gateway&lt;/font&gt;" style="outlineConnect=0;dashed=0;verticalLabelPosition=bottom;verticalAlign=top;align=center;html=1;shape=mxgraph.aws3.vpc_nat_gateway;fillColor=#F58534;gradientColor=none;" vertex="1" parent="1">
          <mxGeometry x="254.75" y="240" width="58.5" height="61.04" as="geometry" />
        </mxCell>
        <mxCell id="dqyaHiq_9Pxx8zwqD8IH-24" value="&lt;font color=&quot;#f58534&quot;&gt;S3 Endpoint&lt;/font&gt;" style="outlineConnect=0;dashed=0;verticalLabelPosition=bottom;verticalAlign=top;align=center;html=1;shape=mxgraph.aws3.vpn_gateway;fillColor=#F58534;gradientColor=none;" vertex="1" parent="1">
          <mxGeometry x="423.25" y="530" width="43" height="44.87" as="geometry" />
        </mxCell>
      </root>
    </mxGraphModel>
  </diagram>
</mxfile>
